<svg width="131" height="24" viewBox="0 0 131 24" fill="none" xmlns="http://www.w3.org/2000/svg">
  <path fill-rule="evenodd" clip-rule="evenodd" d="M2.25129 21.0941C-0.750469 18.1178 -0.750421 13.2923 2.25138 10.316L10.4044 2.23224C12.942 -0.283773 16.8124 -0.672891 19.7622 1.06489C20.6747 1.6024 20.6667 2.83544 19.9162 3.57952C19.1658 4.3236 17.9407 4.25956 16.9221 3.96416C15.6177 3.5859 14.1508 3.90678 13.1221 4.92679L4.96903 13.0105C3.46813 14.4987 3.46811 16.9114 4.96899 18.3996C6.4699 19.8878 8.9034 19.8878 10.4043 18.3996L26.7102 2.23234C29.7121 -0.743955 34.5789 -0.743968 37.5808 2.23231L45.7339 10.316C48.7357 13.2922 48.7357 18.1178 45.7339 21.0941C42.7321 24.0704 37.8652 24.0704 34.8633 21.0941L32.1457 18.3996L28.7486 21.7678C26.211 24.2838 22.3406 24.6729 19.3907 22.9351C18.4783 22.3976 18.4863 21.1646 19.2368 20.4205C19.9872 19.6764 21.2122 19.7404 22.2309 20.0358C23.5353 20.4141 25.0022 20.0932 26.0309 19.0732L29.5251 15.6088C30.9724 14.1738 33.3189 14.1738 34.7663 15.6088L37.581 18.3996C39.0819 19.8877 41.5153 19.8877 43.0162 18.3996C44.5171 16.9114 44.5171 14.4987 43.0162 13.0105L34.8631 4.92688C33.3622 3.43874 30.9288 3.43875 29.4279 4.9269L13.122 21.0942C10.1201 24.0705 5.25311 24.0705 2.25129 21.0941Z" fill="white"/>
</svg>
